<?xml version="1.0" encoding="iso-8859-1"?>
<!-- Generator: Adobe Illustrator 18.1.1, SVG Export Plug-In . SVG Version: 6.00 Build 0)  -->
<svg version="1.1" id="Capa_1" xmlns="http://www.w3.org/2000/svg" xmlns:xlink="http://www.w3.org/1999/xlink" x="0px" y="0px"
	 viewBox="0 0 55.706 55.706" style="enable-background:new 0 0 55.706 55.706;" xml:space="preserve">
<g>
	<path style="fill:#010002;" d="M53.032,11.602L45.88,4.426c-0.047-0.047-0.096-0.092-0.146-0.136
		c-3.555-3.121-8.102-3.059-12.486,0.176c-0.346,0.258-8.577,6.433-17.131,14.988C8.151,27.42,2.787,35.057,1.848,36.424
		c-3.519,3.905-1.43,10.352,1.431,13.397c2.141,2.28,5.782,3.88,8.854,3.891c0.011,0,0.021,0,0.032,0
		c1.984,0,3.683-0.641,4.932-1.857c1.078-0.864,7.633-6.197,12.427-11.836c4.996-5.878,9.481-11.177,9.481-11.177
		c0.03-0.037,0.061-0.074,0.09-0.111c3.602-4.691,2.763-9.003,0.459-11.024c-2.613-2.295-7.634-1.351-10.959,2.058L17.629,30.994
		c-1.157,1.185-1.135,3.084,0.05,4.242c1.186,1.157,3.085,1.137,4.243-0.051l10.968-11.23c0.946-0.971,2.021-1.386,2.654-1.493
		c-0.021,0.467-0.247,1.345-1.167,2.56c-0.499,0.59-4.737,5.595-9.424,11.109c-4.737,5.573-11.655,11.079-11.725,11.134
		c-0.109,0.087-0.213,0.182-0.31,0.283c-0.079,0.082-0.352,0.15-0.764,0.163c-1.552-0.005-3.618-1.058-4.501-1.998
		c-1.479-1.575-2.055-4.554-1.314-5.308c0.129-0.132,0.245-0.273,0.347-0.426c0.054-0.08,5.474-8.084,13.674-16.284
		C28.595,15.46,36.759,9.332,36.826,9.282c2.873-2.119,4.254-1.089,4.878-0.548l7.144,7.167c0.047,0.047,0.096,0.092,0.146,0.136
		c0.581,0.51,1.374,1.206-0.26,4.63c-0.582,0.938-4.624,7.34-9.805,12.852c-5.727,6.092-13.022,12.774-13.095,12.841
		c-1.222,1.118-1.307,3.016-0.189,4.238c1.118,1.225,3.016,1.309,4.238,0.189c0.305-0.278,7.532-6.898,13.417-13.159
		c6.02-6.404,10.447-13.656,10.632-13.961c0.049-0.08,0.094-0.163,0.135-0.247C54.98,21.538,57.747,15.833,53.032,11.602z"/>
</g>
<g>
</g>
<g>
</g>
<g>
</g>
<g>
</g>
<g>
</g>
<g>
</g>
<g>
</g>
<g>
</g>
<g>
</g>
<g>
</g>
<g>
</g>
<g>
</g>
<g>
</g>
<g>
</g>
<g>
</g>
</svg>
